# AST/ASF file generated using VICON BodyLanguage
# -----------------------------------------------
:version 1.10
:name VICON
:units
  mass 1.0
  length 0.45
  angle deg
:documentation
   .ast/.asf automatically generated from VICON data using
   VICON BodyBuilder and BodyLanguage model FoxedUp or BRILLIANT.MOD
:root
   order TX TY TZ RX RY RZ
   axis XYZ
   position 0 0 0  
   orientation 0 0 0 
:bonedata
  begin
     id 1 
     name lhipjoint
     direction 0.707368 -0.647095 0.284426 
     length 2.60678 
     axis 0 0 0  XYZ
  end
  begin
     id 2 
     name lfemur
     direction 0.34202 -0.939693 0  
     length 6.63812  
     axis 0 0 20  XYZ
    dof rx ry rz
    limits (-160.0 20.0)
           (-70.0 70.0)
           (-60.0 70.0)
  end
  begin
     id 3 
     name ltibia
     direction 0.34202 -0.939693 0   
     length 7.51178   
     axis 0 0 20   XYZ
    dof rx
    limits (-10.0 170.0)
  end
  begin
     id 4 
     name lfoot
     direction 0.121251 -0.333133 0.935051   
     length 1.83716   
     axis -90 7.62852e-016 20   XYZ
    dof rx rz
    limits (-45.0 90.0)
           (-70.0 20.0)
  end
  begin
     id 5 
     name ltoes
     direction 1.53611e-011 -4.21962e-011 1   
     length 0.916133   
     axis -90 7.62852e-016 20   XYZ
    dof rx
    limits (-90.0 20.0)
  end
  begin
     id 6 
     name rhipjoint
     direction -0.692419 -0.660507 0.290321   
     length 2.55385  
     axis 0 0 0  XYZ 
  end
  begin
     id 7 
     name rfemur
     direction -0.34202 -0.939693 0   
     length 7.29079   
     axis 0 0 -20   XYZ
    dof rx ry rz
    limits (-160.0 20.0)
           (-70.0 70.0)
           (-70.0 60.0)
  end
  begin
     id 8 
     name rtibia
     direction -0.34202 -0.939693 0   
     length 7.47143   
     axis 0 0 -20   XYZ
    dof rx
    limits (-10.0 170.0)
 end
 begin
     id 9 
     name rfoot
     direction -0.119907 -0.329441 0.936532   
     length 1.79439  
     axis -90 -7.62852e-016 -20   XYZ
    dof rx rz
    limits (-45.0 90.0)
           (-20.0 70.0)
  end
  begin
     id 10 
     name rtoes
     direction -1.53571e-011 -4.21961e-011 1   
     length 0.896039   
     axis -90 -7.62852e-016 -20   XYZ
    dof rx
    limits (-90.0 20.0)
  end
  begin
     id 11 
     name lowerback
     direction 0.0367721 0.992912 -0.113016   
     length 1.73542   
     axis 0 0 0   XYZ
    dof rx ry rz
    limits (-20.0 45.0)
           (-30.0 30.0)
           (-30.0 30.0)
  end
  begin
     id 12 
     name upperback
     direction -0.000314626 0.990678 0.136227   
     length 1.7514   
     axis 0 0 0   XYZ
    dof rx ry rz
    limits (-20.0 45.0)
           (-30.0 30.0)
           (-30.0 30.0)
  end
  begin
     id 13 
     name thorax
     direction -0.0226159 0.981151 0.191917   
     length 1.71471   
     axis 0 0 0   XYZ
    dof rx ry rz
    limits (-20.0 45.0)
           (-30.0 30.0)
           (-30.0 30.0)
  end
  begin
     id 14 
     name lowerneck
     direction 0.0219333 0.998071 0.0580739   
     length 1.65882   
     axis 0 0 0   XYZ
    dof rx ry rz
    limits (-20.0 45.0)
           (-30.0 30.0)
           (-30.0 30.0)
  end
  begin
     id 15 
     name upperneck
     direction 0.0384529 0.980058 -0.194957   
     length 1.6612   
     axis 0 0 0   XYZ
    dof rx ry rz
    limits (-20.0 45.0)
           (-30.0 30.0)
           (-30.0 30.0)
  end
  begin
     id 16
     name head
     direction 0.00592123 0.997421 -0.0715234  
     length 1.68077  
     axis 0 0 0   XYZ
    dof rx ry rz
    limits (-20.0 45.0)
           (-30.0 30.0)
           (-30.0 30.0)
  end
  begin
     id 17 
     name lclavicle
     direction 0.904803 0.417826 0.0821728  
     length 3.42227  
     axis 0 0 0   XYZ
    dof ry rz
    limits (-20.0 10.0)
           (0.0 20.0)
  end
  begin
     id 18 
     name lhumerus
     direction 1 -4.48965e-011 -2.68786e-027   
     length 5.11878   
     axis -180 -30 -90   XYZ
    dof rx ry rz
    limits (-60.0 90.0)
           (-90.0 90.0)
           (-90.0 90.0)
  end
  begin
     id 19
     name lradius
     direction 1 -4.48965e-011 2.61168e-028   
     length 3.59971   
     axis -180 -30 -90   XYZ
    dof rx
    limits (-10.0 170.0)
  end
  begin
     id 20
     name lwrist
     direction 1 -4.48965e-011 1.58672e-027   
     length 1.79985   
     axis -1.65735e-015 90 90   XYZ
    dof ry
    limits (-180.0 0.0)
 end
  begin
     id 21 
     name lhand
     direction 1 -4.48942e-011 3.17344e-027   
     length 0.62877   
     axis -2.02492e-015 90 90   XYZ
    dof rx rz
    limits (-90.0 90.0)
           (-45.0 45.0)
  end
  begin
     id 22 
     name lfingers
     direction 1 -4.49011e-011 6.34687e-027   
     length 0.506931   
     axis -4.04985e-015 90 90   XYZ
    dof rx
    limits (0.0 90.0)
  end
  begin
     id 23
     name lthumb
     direction 0.707107 -6.34982e-011 0.707107   
     length 0.727854   
     axis -90 45 2.85299e-015   XYZ
    dof rx rz
    limits (-45.0 45.0)
           (-45.0 45.0)
  end
  begin
     id 24 
     name rclavicle
     direction -0.945647 0.32488 0.0143075   
     length 3.52737  
     axis 0 0 0   XYZ 
    dof ry rz
    limits (-10.0 20.0)
           (-20.0 0.0)
  end
  begin
     id 25 
     name rhumerus
     direction -1 -4.48962e-011 1.92182e-027  
     length 5.4902   
     axis -180 30 90   XYZ
    dof rx ry rz
    limits (-90.0 60.0)
           (-90.0 90.0)
           (-90.0 90.0)
  end
  begin
     id 26 
     name rradius
     direction -1 -4.48967e-011 -5.97193e-028   
     length 3.20659   
     axis -180 30 90   XYZ
    dof rx
    limits (-10.0 170.0)
  end
  begin
     id 27 
     name rwrist
     direction -1 -4.48964e-011 1.58672e-027   
     length 1.6033   
     axis -1.65735e-015 -90 -90   XYZ
    dof ry
    limits (-180.0 0.0)
  end
  begin
     id 28
     name rhand
     direction -1 -4.49006e-011 3.17344e-027   
     length 0.691885   
     axis -2.02492e-015 -90 -90   XYZ
    dof rx rz
    limits (-90.0 90.0)
           (-45.0 45.0)
  end
  begin
     id 29
     name rfingers
     direction -1 -4.48908e-011 6.34687e-027   
     length 0.557815   
     axis -4.04985e-015 -90 -90   XYZ
    dof rx
    limits (0.0 90.0)
  end
  begin
     id 30
     name rthumb
     direction -0.707107 -6.34999e-011 0.707107   
     length 0.800915   
     axis -90 -45 -2.85299e-015   XYZ
    dof rx rz
    limits (-45.0 45.0)
           (-45.0 45.0)
  end
:hierarchy
  begin
    root lhipjoint rhipjoint lowerback
    lhipjoint lfemur
    lfemur ltibia
    ltibia lfoot
    lfoot ltoes
    rhipjoint rfemur
    rfemur rtibia
    rtibia rfoot
    rfoot rtoes
    lowerback upperback
    upperback thorax
    thorax lowerneck lclavicle rclavicle
    lowerneck upperneck
    upperneck head
    lclavicle lhumerus
    lhumerus lradius
    lradius lwrist
    lwrist lhand lthumb
    lhand lfingers
    rclavicle rhumerus
    rhumerus rradius
    rradius rwrist
    rwrist rhand rthumb
    rhand rfingers
  end

#!OML:ASF I:\Actors\actors\Patient Classification 1\Patient 1\Session 1\Subject1.ASF
:FULLY-SPECIFIED
:DEGREES
80
root -0.370834 17.4984 7.9116 6.55646 -2.05505 -8.06203
lowerback -0.420899 1.06363 5.41067
upperback -9.10781 1.81449 1.64409
thorax -9.29294 0.5421 -1.40892
lowerneck 0.214166 -12.2122 -12.0909
upperneck 17.0982 -18.274 11.7002
head 7.40009 -8.93903 4.27808
rclavicle 1.88845e-015 5.36719e-014
rhumerus -48.1792 -27.622 -65.2801
rradius 26.47
rwrist 42.2907
rhand 7.87445 -32.033
rfingers 7.12502
rthumb 33.1076 -59.0104
lclavicle 1.88845e-015 5.36719e-014
lhumerus -51.6978 34.4911 57.1657
lradius 23.3198
lwrist -28.9571
lhand -14.0803 -9.4055
lfingers 7.12502
lthumb 12.0517 20.2275
rfemur 1.0845 24.9281 27.3038
rtibia 1.02335
rfoot -11.0248 -24.2679
rtoes 2.58179
lfemur 10.2505 -40.5332 -17.2628
ltibia -4.86026
lfoot -16.0987 47.7467
ltoes 4.91513
81
root -0.370979 17.4981 7.91198 6.57729 -2.04312 -8.07765
lowerback -0.43685 1.03826 5.43472
upperback -9.12064 1.78314 1.67481
thorax -9.30069 0.525859 -1.38707
lowerneck -0.0601683 -12.1083 -12.217
upperneck 17.3269 -18.1507 11.8355
head 7.53134 -8.863 4.33335
rclavicle -3.8763e-015 1.63003e-014
rhumerus -48.2724 -27.6367 -65.2008
rradius 26.4266
rwrist 42.3772
rhand 7.89702 -32.0357
rfingers 7.12502
rthumb 33.1291 -59.0086
lclavicle -3.8763e-015 1.63003e-014
lhumerus -50.7266 30.4435 60.9042
lradius 25.233
lwrist -24.2853
lhand -13.7153 -7.94978
lfingers 7.12502
lthumb 12.4036 21.6622
rfemur 1.05647 24.9319 27.3152
rtibia 1.02183
rfoot -10.9878 -24.3139
rtoes 2.28065
lfemur 10.2142 -40.5288 -17.2136
ltibia -4.8645
lfoot -16.0192 47.74
ltoes 4.68383
82
root -0.37075 17.4981 7.91215 6.58519 -2.03451 -8.04531
lowerback -0.44123 1.0136 5.4176
upperback -9.13235 1.7503 1.68792
thorax -9.31399 0.511168 -1.36119
lowerneck -0.168648 -11.9609 -12.3152
upperneck 17.4041 -17.9753 12.0294
head 7.57959 -8.76673 4.42439
rclavicle 7.05686e-015 3.57812e-015
rhumerus -48.3707 -27.6879 -65.1142
rradius 26.3183
rwrist 42.4651
rhand 7.89004 -32.0223
rfingers 7.12502
rthumb 33.1225 -58.9966
lclavicle 7.05686e-015 3.57812e-015
lhumerus -50.6684 29.5973 61.6375
lradius 25.6177
lwrist -23.7036
lhand -13.383 -7.41394
lfingers 7.12502
lthumb 12.724 22.1784
rfemur 1.04352 24.923 27.2721
rtibia 1.02691
rfoot -10.997 -24.3329
rtoes 2.32575
lfemur 10.2384 -40.6022 -17.2789
ltibia -4.87062
lfoot -16.0743 47.8035
ltoes 4.85442
83
root -0.371919 17.4983 7.91356 6.5831 -2.03658 -8.04807
lowerback -0.45953 0.997966 5.40247
upperback -9.12851 1.72816 1.70485
thorax -9.30094 0.502662 -1.33286
lowerneck -0.292755 -11.8454 -12.0773
upperneck 17.3921 -17.7833 11.8954
head 7.53608 -8.66395 4.36342
rclavicle -1.85367e-014 2.82274e-014
rhumerus -48.4611 -27.6259 -65.1627
rradius 26.2685
rwrist 42.4363
rhand 7.90088 -32.0872
rfingers 7.12502
rthumb 33.1328 -59.0593
lclavicle -1.85367e-014 2.82274e-014
lhumerus -50.6344 28.6797 62.4955
lradius 26.2453
lwrist -23.0666
lhand -12.9274 -6.74698
lfingers 7.12502
lthumb 13.1632 22.8175
rfemur 1.05294 24.9692 27.2884
rtibia 1.05714
rfoot -11.0934 -24.3264
rtoes 2.68468
lfemur 10.2791 -40.6142 -17.2904
ltibia -4.91238
lfoot -16.0753 47.8354
ltoes 4.9635
84
root -0.372675 17.4985 7.91524 6.58524 -2.0507 -8.06289
lowerback -0.478336 0.97273 5.41565
upperback -9.119 1.69329 1.71238
thorax -9.28141 0.485382 -1.32929
lowerneck -0.610958 -11.7539 -11.6279
upperneck 17.4655 -17.5888 11.5497
head 7.51577 -8.55091 4.19
rclavicle 7.45443e-016 2.38542e-015
rhumerus -48.5162 -27.4403 -65.3675
rradius 26.2889
rwrist 42.2836
rhand 8.02701 -32.2041
rfingers 7.12502
rthumb 33.2527 -59.1506
lclavicle 7.45443e-016 2.38542e-015
lhumerus -50.5791 27.0576 64.0218
lradius 27.5167
lwrist -21.5382
lhand -12.4388 -5.59284
lfingers 7.12502
lthumb 13.6341 23.9406
rfemur 1.05938 25.0007 27.3087
rtibia 1.0725
rfoot -11.1682 -24.3182
rtoes 2.82793
lfemur 10.2689 -40.582 -17.2608
ltibia -4.90606
lfoot -16.03 47.8198
ltoes 4.85147
85
root -0.372358 17.4985 7.91586 6.59137 -2.06968 -8.07836
lowerback -0.454973 0.937803 5.47295
upperback -9.12022 1.64999 1.70495
thorax -9.29864 0.458608 -1.36625
lowerneck -0.990927 -11.6141 -11.2852
upperneck 17.603 -17.3587 11.3702
head 7.54953 -8.41318 4.08513
rclavicle -1.57537e-014 1.47101e-014
rhumerus -48.5175 -27.2131 -65.6639
rradius 26.2905
rwrist 42.0359
rhand 8.1632 -32.2705
rfingers 7.12502
rthumb 33.3822 -59.1893
lclavicle -1.57537e-014 1.47101e-014
lhumerus -50.6313 24.5965 66.2407
lradius 29.6114
lwrist -19.0699
lhand -11.5972 -3.71885
lfingers 7.12502
lthumb 14.4451 25.7584
rfemur 1.04357 24.9775 27.3133
rtibia 1.08628
rfoot -11.1865 -24.2795
rtoes 2.94578
lfemur 10.2545 -40.6319 -17.2611
ltibia -4.84503
lfoot -16.062 47.8639
ltoes 4.77295
86
root -0.373081 17.4981 7.91579 6.57785 -2.09849 -8.1172
lowerback -0.375987 0.920108 5.54441
upperback -9.11099 1.63392 1.69049
thorax -9.33519 0.443405 -1.42148
lowerneck -1.36673 -11.4436 -10.9818
upperneck 17.6968 -17.1022 11.3015
head 7.57986 -8.25882 4.02561
rclavicle 9.44227e-015 1.19271e-015
rhumerus -48.4897 -26.9426 -66.0539
rradius 26.3258
rwrist 41.7139
rhand 8.27875 -32.3532
rfingers 7.12502
rthumb 33.492 -59.2483
lclavicle 9.44227e-015 1.19271e-015
lhumerus -50.8973 21.7288 68.7415
lradius 32.4233
lwrist -16.258
lhand -10.2112 -1.59807
lfingers 7.12502
lthumb 15.7802 27.7787
rfemur 1.0428 24.9652 27.3667
rtibia 1.11175
rfoot -11.1619 -24.2171
rtoes 3.04692
lfemur 10.2936 -40.6634 -17.2546
ltibia -4.82047
lfoot -16.0799 47.9076
ltoes 4.72243
87
root -0.374517 17.4977 7.9151 6.53485 -2.13267 -8.1149
lowerback -0.258555 0.904029 5.52878
upperback -9.08391 1.61726 1.66644
thorax -9.3751 0.434529 -1.43921
lowerneck -1.789 -11.2873 -10.4703
upperneck 17.7605 -16.8344 11.0304
head 7.57188 -8.09867 3.86923
rclavicle 8.84592e-015 -4.57205e-014
rhumerus -48.4357 -26.458 -66.6581
rradius 26.5189
rwrist 41.1443
rhand 8.48159 -32.4944
rfingers 7.12502
rthumb 33.6848 -59.3476
lclavicle 8.84592e-015 -4.57205e-014
lhumerus -51.4791 18.7968 71.2786
lradius 35.9603
lwrist -13.5599
lhand -8.6786 0.460261
lfingers 7.12502
lthumb 17.2558 29.7141
rfemur 1.06882 24.9173 27.3882
rtibia 1.15597
rfoot -11.1683 -24.1371
rtoes 2.96187
lfemur 10.3584 -40.62 -17.2994
ltibia -4.8098
lfoot -16.1322 47.8919
ltoes 4.79157
88
root -0.375593 17.4976 7.91439 6.47977 -2.16687 -8.06249
lowerback -0.113715 0.876744 5.44581
upperback -9.06426 1.58252 1.61746
thorax -9.44069 0.420149 -1.44511
lowerneck -2.26754 -11.1213 -9.86272
upperneck 17.8718 -16.5599 10.7232
head 7.57953 -7.9291 3.68388
rclavicle -5.1684e-015 -1.94809e-014
rhumerus -48.3599 -25.5505 -67.6746
rradius 26.988
rwrist 40.0342
rhand 8.80361 -32.8102
rfingers 7.12502
rthumb 33.9907 -59.596
lclavicle -5.1684e-015 -1.94809e-014
lhumerus -52.4453 15.9174 73.7412
lradius 40.2665
lwrist -11.3507
lhand -7.26053 2.29332
lfingers 7.12502
lthumb 18.6202 31.4221
rfemur 1.09776 24.7894 27.3381
rtibia 1.21745
rfoot -11.225 -23.9975
rtoes 2.79851
lfemur 10.4457 -40.6205 -17.4346
ltibia -4.783
lfoot -16.2292 47.9109
ltoes 4.88918
89
root -0.377632 17.4984 7.91309 6.46393 -2.18151 -8.06502
lowerback -0.00245313 0.853716 5.40895
upperback -9.05475 1.55387 1.57184
thorax -9.49708 0.405404 -1.47281
lowerneck -2.78949 -10.9462 -9.3949
upperneck 18.0529 -16.3202 10.6474
head 7.65658 -7.76533 3.58574
rclavicle -4.87022e-015 1.11319e-014
rhumerus -48.292 -24.3242 -68.9789
rradius 27.6642
rwrist 38.553
rhand 9.07713 -33.1371
rfingers 7.12502
rthumb 34.2505 -59.8649
lclavicle -4.87022e-015 1.11319e-014
lhumerus -53.6038 13.2527 76.0659
lradius 45.1137
lwrist -9.88466
lhand -5.83116 3.51587
lfingers 7.12502
lthumb 19.9947 32.5072
rfemur 1.0879 24.7303 27.3429
rtibia 1.24343
rfoot -11.1887 -23.9429
rtoes 2.42116
lfemur 10.4659 -40.6171 -17.4415
ltibia -4.77244
lfoot -16.2584 47.909
ltoes 4.86018
90
root -0.381171 17.4998 7.91049 6.49423 -2.16354 -8.10466
lowerback 0.0487493 0.827585 5.37867
upperback -9.03989 1.51944 1.56257
thorax -9.51312 0.390241 -1.464
lowerneck -3.32945 -10.7598 -9.07014
upperneck 18.2175 -16.0729 10.667
head 7.7528 -7.59911 3.53978
rclavicle 7.65321e-015 -2.10712e-014
rhumerus -48.234 -22.994 -70.3175
rradius 28.4467
rwrist 36.9707
rhand 9.28657 -33.3523
rfingers 7.12502
rthumb 34.4494 -60.0352
lclavicle 7.65321e-015 -2.10712e-014
lhumerus -54.7236 11.0105 78.1873
lradius 50.1776
lwrist -9.15544
lhand -4.34158 3.77848
lfingers 7.12502
lthumb 21.4259 32.6137
rfemur 1.03101 24.8045 27.3916
rtibia 1.24233
rfoot -11.1172 -24.0253
rtoes 2.30243
lfemur 10.3187 -40.4829 -17.2626
ltibia -4.73593
lfoot -16.1188 47.7766
ltoes 4.54084
91
root -0.384493 17.5006 7.90739 6.51885 -2.12223 -8.05804
lowerback 0.113247 0.812934 5.27182
upperback -9.02319 1.49511 1.52406
thorax -9.53403 0.384707 -1.44476
lowerneck -3.85687 -10.5657 -8.86782
upperneck 18.3684 -15.826 10.7852
head 7.86229 -7.43385 3.54558
rclavicle -1.55052e-014 2.38542e-014
rhumerus -48.2325 -21.6142 -71.6901
rradius 29.3831
rwrist 35.2335
rhand 9.63846 -33.6757
rfingers 7.12502
rthumb 34.7834 -60.2821
lclavicle -1.55052e-014 2.38542e-014
lhumerus -55.7018 8.96148 80.1732
lradius 55.3398
lwrist -8.79935
lhand -3.02977 3.50609
lfingers 7.12502
lthumb 22.6854 32.1927
rfemur 0.973294 24.7916 27.3304
rtibia 1.25341
rfoot -11.1206 -24.0258
rtoes 2.56658
lfemur 10.1393 -40.3561 -17.1848
ltibia -4.64421
lfoot -15.9428 47.6221
ltoes 4.22134
92
root -0.387654 17.5013 7.90373 6.53471 -2.05523 -7.95985
lowerback 0.201636 0.817242 5.11847
upperback -9.01511 1.49398 1.46094
thorax -9.57704 0.392514 -1.42808
lowerneck -4.33156 -10.4023 -8.74347
upperneck 18.542 -15.6356 10.9622
head 7.98838 -7.29701 3.57945
rclavicle 4.96962e-016 3.26007e-014
rhumerus -48.3271 -20.1674 -73.0785
rradius 30.2993
rwrist 33.8544
rhand 9.81022 -33.6201
rfingers 7.12502
rthumb 34.9463 -60.1887
lclavicle 4.96962e-016 3.26007e-014
lhumerus -56.4717 6.92975 82.1144
lradius 60.4802
lwrist -8.51069
lhand -2.24291 3.05073
lfingers 7.12502
lthumb 23.4404 31.643
rfemur 0.906885 24.598 27.1881
rtibia 1.2844
rfoot -11.1654 -23.8932
rtoes 2.84627
lfemur 9.98877 -40.3074 -17.2123
ltibia -4.5287
lfoot -15.8918 47.5016
ltoes 4.04029
93
root -0.392037 17.5025 7.8985 6.56409 -1.92509 -7.91694
lowerback 0.258645 0.806546 4.99482
upperback -9.01734 1.47561 1.43933
thorax -9.61508 0.391606 -1.38182
lowerneck -4.75833 -10.2477 -8.57186
upperneck 18.7114 -15.4329 10.9808
head 8.08655 -7.16525 3.55987
rclavicle 3.8763e-015 -3.45885e-014
rhumerus -48.4503 -18.6173 -74.4729
rradius 31.0997
rwrist 32.9409
rhand 9.65901 -33.0866
rfingers 7.12502
rthumb 34.8028 -59.6884
lclavicle 3.8763e-015 -3.45885e-014
lhumerus -56.9284 5.05522 83.9556
lradius 65.3503
lwrist -8.27651
lhand -1.98024 2.20832
lfingers 7.12502
lthumb 23.6923 30.7682
rfemur 0.811362 24.386 27.1082
rtibia 1.32408
rfoot -11.2025 -23.8031
rtoes 2.99479
lfemur 9.78099 -40.2061 -17.1059
ltibia -4.44582
lfoot -15.7344 47.3198
ltoes 3.66513
94
root -0.397605 17.5032 7.89208 6.56027 -1.73841 -7.95452
lowerback 0.325499 0.786349 4.95513
upperback -9.02303 1.45164 1.43986
thorax -9.66322 0.382083 -1.35831
lowerneck -5.07493 -10.0631 -8.35299
upperneck 18.8091 -15.1793 10.9407
head 8.12735 -7.01734 3.5273
rclavicle 2.78299e-015 -2.18663e-014
rhumerus -48.5929 -16.9756 -75.9414
rradius 32.1191
rwrist 31.5646
rhand 9.7884 -32.9863
rfingers 7.12502
rthumb 34.9256 -59.5597
lclavicle 2.78299e-015 -2.18663e-014
lhumerus -57.0066 3.3733 85.6001
lradius 69.7942
lwrist -8.1608
lhand -1.7461 0.952187
lfingers 7.12502
lthumb 23.9169 29.4828
rfemur 0.775756 24.2885 27.1708
rtibia 1.34573
rfoot -11.1828 -23.8783
rtoes 2.88153
lfemur 9.59932 -40.0521 -16.8709
ltibia -4.43689
lfoot -15.4852 47.0573
ltoes 3.38303
